<svg xmlns="http://www.w3.org/2000/svg" viewBox="0 0 1280 320" width="1280" height="320" role="img" aria-label="SOUNDREEL. Automates a faceless YouTube music channel end to end. Stack: Python, Postgres, YouTube API.">
<path d="M0 0H1258L1280 22V320H22L0 298Z" fill="#F6EDFA"></path><path d="M24 24H1234L1256 46V296H46L24 274Z" fill="none" stroke="#D6CADA" stroke-width="1"></path><path d="M1257.5 0.5L1279.5 22.5" stroke="#8F15AD" stroke-width="2"></path><path d="M900 24V296" stroke="#D6CADA" stroke-width="1"></path><path d="M80 74H88L91 77V84H83L80 81Z" fill="#8F15AD"></path><text x="102" y="85" font-family="ui-monospace,SFMono-Regular,Menlo,Consolas,monospace" font-size="13" fill="#645C67">project</text><path d="M100.4 133.1L95.3 128L85.1 128L80 133.1L80 139.9L85.1 145L95.3 145L100.4 150.1L100.4 156.9L95.3 162L85.1 162L80 156.9M114 128L124.2 128L129.3 133.1L129.3 156.9L124.2 162L114 162L108.9 156.9L108.9 133.1L114 128M137.8 128L137.8 156.9L142.9 162L153.1 162L158.2 156.9L158.2 128M166.7 162L166.7 128L187.1 162L187.1 128M195.6 128L209.2 128L216 134.8L216 155.2L209.2 162L195.6 162L195.6 128M224.5 162L224.5 128L239.8 128L244.9 133.1L244.9 141.6L239.8 146.7L224.5 146.7M234.7 146.7L244.9 162M273.8 128L253.4 128L253.4 162L273.8 162M253.4 145L268.7 145M302.7 128L282.3 128L282.3 162L302.7 162M282.3 145L297.6 145M311.2 128L311.2 162L331.6 162" fill="none" stroke="#443E46" stroke-width="2.6" stroke-linejoin="miter"></path><path d="M80 188H340.1" stroke="#D6CADA" stroke-width="1"></path><text x="80" y="238" font-family="ui-monospace,SFMono-Regular,Menlo,Consolas,monospace" font-size="16" fill="#665E69">Automates a faceless YouTube music channel end to end.</text><text x="940" y="85" font-family="ui-monospace,SFMono-Regular,Menlo,Consolas,monospace" font-size="13" fill="#645C67">stack</text><path d="M940 116H1022L1030 124V148H940Z" fill="none" stroke="#CBBED0" stroke-width="1"></path><text x="985" y="137" text-anchor="middle" font-family="ui-monospace,SFMono-Regular,Menlo,Consolas,monospace" font-size="16" fill="#665E69">Python</text><path d="M940 158H1043L1051 166V190H940Z" fill="none" stroke="#CBBED0" stroke-width="1"></path><text x="995.5" y="179" text-anchor="middle" font-family="ui-monospace,SFMono-Regular,Menlo,Consolas,monospace" font-size="16" fill="#665E69">Postgres</text><path d="M940 200H1074L1082 208V232H940Z" fill="none" stroke="#B655D2" stroke-width="1"></path><text x="1011" y="221" text-anchor="middle" font-family="ui-monospace,SFMono-Regular,Menlo,Consolas,monospace" font-size="16" fill="#8F15AD">YouTube API</text>
</svg>
