<svg xmlns="http://www.w3.org/2000/svg" viewBox="0 0 1280 640" width="1280" height="640" role="img" aria-label="DECOMP-STUDIO. Toolkit for Pokemon GBA hackroms on pret decomp projects. Stack: TypeScript, Monorepo, Pre-alpha.">
<path d="M0 0H1258L1280 22V640H22L0 618Z" fill="#F6F0E4"></path><path d="M24 24H1234L1256 46V616H46L24 594Z" fill="none" stroke="#D9CDB8" stroke-width="1"></path><path d="M1257.5 0.5L1279.5 22.5" stroke="#B36E0E" stroke-width="2"></path><path d="M80 96H88L91 99V106H83L80 103Z" fill="#B36E0E"></path><text x="102" y="107" font-family="ui-monospace,SFMono-Regular,Menlo,Consolas,monospace" font-size="17" fill="#6E5F47">Santiago, Chile · building in public</text><g transform="translate(80,210) scale(0.93)" fill="#241C10" fill-rule="evenodd"><path transform="translate(0,0)" d="M0 0H72L84 12V98L72 110H0Z M26 26H58V84H26Z"></path><path transform="translate(100,0)" d="M0 0H80V26H26V42H70V68H26V84H80V110H0Z"></path><path transform="translate(196,0)" d="M12 0H84V26H26V84H84V110H12L0 98V12Z"></path><path transform="translate(296,0)" d="M12 0H72L84 12V98L72 110H12L0 98V12Z M26 26H58V84H26Z"></path><path transform="translate(396,0)" d="M0 0H26L52 46L78 0H104V110H78V52L52 96L26 52V110H0Z"></path><path transform="translate(516,0)" d="M0 0H72L84 12V56L72 68H26V110H0Z M26 26H58V42H26Z"></path><path transform="translate(616,0)" d="M0 44H56V66H0Z"></path><path transform="translate(688,0)" d="M10 0H78V26H26V42H78V100L68 110H0V84H52V68H0V10Z"></path><path transform="translate(782,0)" d="M0 0H76V26H51V110H25V26H0Z"></path><path transform="translate(874,0)" d="M0 0H26V84H58V0H84V98L72 110H12L0 98Z"></path><path transform="translate(974,0)" d="M0 0H72L84 12V98L72 110H0Z M26 26H58V84H26Z"></path><path transform="translate(1074,0)" d="M0 0H26V110H0Z"></path><path transform="translate(1116,0)" d="M12 0H72L84 12V98L72 110H12L0 98V12Z M26 26H58V84H26Z"></path></g><path d="M80 400H1192L1200 392" fill="none" stroke="#D9CDB8" stroke-width="1"></path><text x="80" y="456" font-family="ui-monospace,SFMono-Regular,Menlo,Consolas,monospace" font-size="26" fill="#4A3F2C">Toolkit for Pokemon GBA hackroms on pret decomp projects.</text><path d="M80 536H204L212 544V568H80Z" fill="none" stroke="#CFC2AB" stroke-width="1"></path><text x="146" y="557" text-anchor="middle" font-family="ui-monospace,SFMono-Regular,Menlo,Consolas,monospace" font-size="16" fill="#6E5F47">TypeScript</text><path d="M224 536H327L335 544V568H224Z" fill="none" stroke="#CFC2AB" stroke-width="1"></path><text x="279.5" y="557" text-anchor="middle" font-family="ui-monospace,SFMono-Regular,Menlo,Consolas,monospace" font-size="16" fill="#6E5F47">Monorepo</text><path d="M347 536H461L469 544V568H347Z" fill="none" stroke="#C1913D" stroke-width="1"></path><text x="408" y="557" text-anchor="middle" font-family="ui-monospace,SFMono-Regular,Menlo,Consolas,monospace" font-size="16" fill="#8A5309">Pre-alpha</text>
</svg>
