<svg xmlns="http://www.w3.org/2000/svg" viewBox="0 0 1280 640" width="1280" height="640" role="img" aria-label="FIRMA. Anti-AI-slop design skill with a deterministic linter. Stack: Markdown, Node, Zero deps.">
<path d="M0 0H1258L1280 22V640H22L0 618Z" fill="#1D161F"></path><path d="M24 24H1234L1256 46V616H46L24 594Z" fill="none" stroke="#382E3B" stroke-width="1"></path><path d="M1257.5 0.5L1279.5 22.5" stroke="#D742FF" stroke-width="2"></path><path d="M80 96H88L91 99V106H83L80 103Z" fill="#D742FF"></path><text x="102" y="107" font-family="ui-monospace,SFMono-Regular,Menlo,Consolas,monospace" font-size="17" fill="#978E9A">Santiago, Chile · building in public</text><g transform="translate(80,210) scale(0.56)" fill="#E9E4EA" fill-rule="evenodd"><path transform="translate(0,0)" d="M0 0H80V26H26V42H70V68H26V110H0Z"></path><path transform="translate(96,0)" d="M0 0H26V110H0Z"></path><path transform="translate(138,0)" d="M0 0H72L84 12V56L72 68H26V110H0Z M26 26H58V42H26Z M26 68H56L88 110H58Z"></path><path transform="translate(242,0)" d="M0 0H26L52 46L78 0H104V110H78V52L52 96L26 52V110H0Z"></path><path transform="translate(362,0)" d="M12 0H72L84 12V110H58V88H26V110H0V12Z M26 26H58V68H26Z"></path></g><path d="M80 400H1192L1200 392" fill="none" stroke="#382E3B" stroke-width="1"></path><text x="80" y="456" font-family="ui-monospace,SFMono-Regular,Menlo,Consolas,monospace" font-size="26" fill="#938A96">Anti-AI-slop design skill with a deterministic linter.</text><path d="M80 536H183L191 544V568H80Z" fill="none" stroke="#413644" stroke-width="1"></path><text x="135.5" y="557" text-anchor="middle" font-family="ui-monospace,SFMono-Regular,Menlo,Consolas,monospace" font-size="16" fill="#9F96A2">Markdown</text><path d="M203 536H264L272 544V568H203Z" fill="none" stroke="#413644" stroke-width="1"></path><text x="237.5" y="557" text-anchor="middle" font-family="ui-monospace,SFMono-Regular,Menlo,Consolas,monospace" font-size="16" fill="#9F96A2">Node</text><path d="M284 536H398L406 544V568H284Z" fill="none" stroke="#AD00D2" stroke-width="1"></path><text x="345" y="557" text-anchor="middle" font-family="ui-monospace,SFMono-Regular,Menlo,Consolas,monospace" font-size="16" fill="#D742FF">Zero deps</text>
</svg>
